<svg width="330" height="330" xmlns="http://www.w3.org/2000/svg">
 <metadata id="metadata8">image/svg+xml</metadata>
 <defs>
  <clipPath id="clipPath32" clipPathUnits="userSpaceOnUse">
   <path id="path34" d="m0,202l202,0l0,-202l-202,0l0,202z"/>
  </clipPath>
  <clipPath id="clipPath40" clipPathUnits="userSpaceOnUse">
   <path id="path42" d="m95.5131,59.1852l41.3499,0l0,-27.8766l-41.3499,0l0,27.8766z"/>
  </clipPath>
  <clipPath id="clipPath44" clipPathUnits="userSpaceOnUse">
   <path id="path46" d="m95.513,31.309l41.35,14.316l-13.473,13.56l-27.877,-27.876z"/>
  </clipPath>
  <clipPath id="clipPath78" clipPathUnits="userSpaceOnUse">
   <path id="path80" d="m95.5154,59.1852l34.4836,0l0,-34.4847l-34.4836,0l0,34.4847z"/>
  </clipPath>
  <clipPath id="clipPath82" clipPathUnits="userSpaceOnUse">
   <path id="path84" d="m123.39,59.185l-27.875,-27.876l6.609,-6.609l27.875,27.876l-6.609,6.609z"/>
  </clipPath>
 </defs>
 <g>
  <title>background</title>
  <rect x="-1" y="-1" width="332" height="332" id="canvas_background" fill="none"/>
 </g>
 <g>
  <title>Layer 1</title>
  <g transform="matrix(1.25,0,0,-1.25,0,252.5) " id="g10">
   <g id="g12">
    <path id="path14" d="m86.7015,42.122149l-27.877,27.877l90.601,90.599l55.75,-0.001l-118.474,-118.475z" fill-rule="nonzero" fill="#54c5f8"/>
   </g>
   <g id="g16">
    <path id="path18" d="m128.5159,0.308849l20.907,-20.907l55.747,0l0.004,0l-48.782,48.782l-27.876,-27.875z" fill-rule="nonzero" fill="#01579b"/>
   </g>
   <g id="g20">
    <path id="path22" d="m205.1755,76.967449l-0.006,-0.001l0,0.001l-55.746,0l-20.908,-20.907l27.876,-27.876l48.784,48.783z" fill-rule="nonzero" fill="#54c5f8"/>
   </g>
   <g id="g24">
    <path id="path26" d="m128.5155,56.059949l-27.875,-27.876l27.875,-27.875l27.876,27.875l-27.876,27.876z" fill-rule="nonzero" fill="#29b6f6"/>
   </g>
  </g>
 </g>
</svg>